<svg version="1.1" xmlns="http://www.w3.org/2000/svg" viewBox="0 0 131.73477357345962 131.20247826859372" width="395.20432072037886" height="393.60743480578117">
  <!-- svg-source:excalidraw -->
  
  <defs>
    <style>
      @font-face {
        font-family: "Virgil";
        src: url("https://excalidraw.com/Virgil.woff2");
      }
      @font-face {
        font-family: "Cascadia";
        src: url("https://excalidraw.com/Cascadia.woff2");
      }
    </style>
  </defs>
  <g stroke-linecap="round"><g transform="translate(14.271090734004929 34.363485880042916) rotate(0 51.59629605272488 31.237753254253953)"><path d="M-0.54 -3.58 C1.18 -6.53, -8.16 -17.73, 9.43 -20.57 C27.01 -23.4, 99.74 -27.45, 104.97 -20.59 C110.21 -13.74, 46.25 12.63, 40.84 20.59 C35.43 28.54, 73.52 23.57, 72.51 27.15 C71.49 30.73, 35.74 39.34, 34.74 42.06 C33.74 44.79, 71.92 36.98, 66.5 43.51 C61.08 50.03, -1.82 74.2, 2.24 81.2 C6.3 88.21, 73.32 87.42, 90.86 85.53 C108.39 83.64, 104.87 73.01, 107.46 69.88 M-4.27 -5.94 C-1.58 -8.53, -3 -15.18, 14.79 -17.27 C32.58 -19.36, 99.23 -25.01, 102.47 -18.48 C105.7 -11.95, 39.75 14, 34.21 21.93 C28.67 29.85, 68.64 26.18, 69.23 29.07 C69.82 31.96, 38.03 36.06, 37.75 39.26 C37.48 42.47, 73.72 41.52, 67.55 48.28 C61.39 55.04, -3.74 73.96, 0.77 79.82 C5.28 85.68, 77.78 85.16, 94.6 83.44 C111.43 81.72, 99.54 72.07, 101.72 69.51" stroke="#000000" stroke-width="4" fill="none"></path></g></g></svg>